<svg xmlns="http://www.w3.org/2000/svg" viewBox="0 0 64 64">
  <defs>
    <linearGradient id="bg" x1="8" y1="8" x2="56" y2="58" gradientUnits="userSpaceOnUse">
      <stop stop-color="#2563eb"/>
      <stop offset="1" stop-color="#0ea5e9"/>
    </linearGradient>
  </defs>
  <rect width="64" height="64" rx="16" fill="url(#bg)"/>
  <path d="M18 25h28l-3 23a5 5 0 0 1-5 4H26a5 5 0 0 1-5-4l-3-23Z" fill="#fff"/>
  <path d="M25 27c0-8 3-13 7-13s7 5 7 13" fill="none" stroke="#bfdbfe" stroke-width="4" stroke-linecap="round"/>
  <path d="M33 19c2-7 8-9 14-7-1 6-6 10-14 7Z" fill="#a7f3d0"/>
  <path d="M27 35v8M32 35v8M37 35v8" stroke="#2563eb" stroke-width="3" stroke-linecap="round"/>
</svg>
